<?xml version="1.0" encoding="UTF-8" standalone="no"?><!DOCTYPE svg PUBLIC "-//W3C//DTD SVG 1.1//EN" "http://www.w3.org/Graphics/SVG/1.1/DTD/svg11.dtd"><svg width="100%" height="100%" viewBox="0 0 18 18" version="1.1" xmlns="http://www.w3.org/2000/svg" xmlns:xlink="http://www.w3.org/1999/xlink" xml:space="preserve" xmlns:serif="http://www.serif.com/" style="fill-rule:evenodd;clip-rule:evenodd;stroke-linejoin:round;stroke-miterlimit:2;"><path d="M11.625,10.5l-0.592,0l-0.21,-0.203c0.735,-0.855 1.177,-1.965 1.177,-3.172c0,-2.693 -2.182,-4.875 -4.875,-4.875c-2.692,0 -4.875,2.183 -4.875,4.875c0,2.692 2.183,4.875 4.875,4.875c1.208,0 2.318,-0.442 3.173,-1.178l0.202,0.21l0,0.593l3.75,3.743l1.118,-1.118l-3.743,-3.75Zm-4.5,0c-1.867,0 -3.375,-1.508 -3.375,-3.375c0,-1.867 1.508,-3.375 3.375,-3.375c1.868,0 3.375,1.508 3.375,3.375c0,1.867 -1.507,3.375 -3.375,3.375Zm0.375,-5.25l-0.75,0l0,1.5l-1.5,0l0,0.75l1.5,0l0,1.5l0.75,0l0,-1.5l1.5,0l0,-0.75l-1.5,0l0,-1.5Z" style="fill:#4c4c4c;fill-rule:nonzero;"/></svg>